<?xml version="1.0" encoding="iso-8859-1"?>
<!-- Generator: Adobe Illustrator 18.0.0, SVG Export Plug-In . SVG Version: 6.00 Build 0)  -->
<!DOCTYPE svg PUBLIC "-//W3C//DTD SVG 1.1//EN" "http://www.w3.org/Graphics/SVG/1.1/DTD/svg11.dtd">
<svg version="1.1" id="Layer_1" xmlns="http://www.w3.org/2000/svg" xmlns:xlink="http://www.w3.org/1999/xlink" x="0px" y="0px"
	 viewBox="0 0 473 105" style="enable-background:new 0 0 473 105;" xml:space="preserve">
<g>
	<defs>
		<path id="SVGID_1_" d="M186.215,53c0,26.386,21.391,47.775,47.776,47.775S281.766,79.386,281.766,53
			c0-26.385-21.39-47.775-47.775-47.775S186.215,26.615,186.215,53"/>
	</defs>
	<clipPath id="SVGID_2_">
		<use xlink:href="#SVGID_1_"  style="overflow:visible;"/>
	</clipPath>
	
		<radialGradient id="SVGID_3_" cx="-37" cy="138" r="1" gradientTransform="matrix(-26.9685 -58.4318 -58.4318 26.9685 7307.6899 -5810.8115)" gradientUnits="userSpaceOnUse">
		<stop  offset="0" style="stop-color:#30BBCB"/>
		<stop  offset="1" style="stop-color:#032E40"/>
	</radialGradient>
	<polygon style="clip-path:url(#SVGID_2_);fill:url(#SVGID_3_);" points="202.995,137.131 149.859,22.005 264.986,-31.131 
		318.122,83.995 	"/>
</g>
<g>
	<defs>
		<rect id="SVGID_4_" x="8.5" y="5.225" width="454.998" height="95.55"/>
	</defs>
	<clipPath id="SVGID_5_">
		<use xlink:href="#SVGID_4_"  style="overflow:visible;"/>
	</clipPath>
	<path style="clip-path:url(#SVGID_5_);fill:#FF901E;" d="M293.173,69.682l4.888-27.553c-3.552,0-6.248-3.195-5.647-6.695
		l0.288-1.684h6.794l0.375-2.035c2.116-11.628,9.889-15.098,17.364-15.098c2.567,0,4.831,0.453,7.247,1.81l-1.654,3.401
		c-1.144,2.357-3.536,3.849-6.157,3.846h-0.04c-3.169,0-5.736,1.964-6.415,6.191l-0.303,1.885h7.85l-0.618,3.618
		c-0.472,2.75-2.858,4.761-5.647,4.761h-3.095l-3.383,19.072c-0.925,5.212-5.458,9.009-10.751,9.009h-0.655
		C293.335,70.21,293.122,69.958,293.173,69.682"/>
	<path style="clip-path:url(#SVGID_5_);fill:#FF901E;" d="M327.955,17.371h15.172l-6.943,39.931
		c-0.415,2.192,0.243,3.266,1.414,3.681c2.401,0.852,4.004,3.101,3.659,5.622l-0.354,2.564c-0.024,0.178-0.138,0.33-0.306,0.397
		c-2.09,0.834-4.9,1.248-7.434,1.248c-8.982,0-8.457-7.169-7.247-14.112l5.134-30.123c-2.477,0-4.35-2.24-3.912-4.678
		L327.955,17.371z"/>
	<path style="clip-path:url(#SVGID_5_);fill:#FF901E;" d="M361.017,70.589c-8.832,0-15.626-4.377-13.134-18.721l1.735-10.042
		c-2.837,0-4.99-2.558-4.503-5.353l0.519-3.002c0.078-0.45,0.468-0.778,0.925-0.778h9.892c2.696,0,4.74,2.436,4.269,5.089
		l-2.495,14.086c-0.832,4.53-0.981,9.285,7.019,9.285c5.512-0.149,8.682-4.304,9.664-9.663l1.735-9.664h-0.15
		c-2.84,0-4.993-2.558-4.506-5.353l0.522-3.002c0.078-0.45,0.466-0.778,0.922-0.778h10.129c2.693,0,4.734,2.432,4.269,5.086
		l-5.674,32.282c-2.567,14.416-11.552,19.324-22.195,19.324c-10.021,0-17.094-4.172-15.95-14.833
		c0.048-0.453,0.442-0.793,0.895-0.793h1.281c3.513,0,6.99,1.33,9.301,3.978c1.177,1.345,3.234,1.984,5.833,1.984
		c5.056,0,9.814-3.32,10.871-9.51l0.753-4.152C369.399,69.608,366.076,70.589,361.017,70.589"/>
	<path style="clip-path:url(#SVGID_5_);fill:#FFFFFF;" d="M231.381,63.185l-0.024-0.003c-2.204-0.153-1.735-2.72-1.468-4.305
		l3.678-23.675c0.204-1.321-0.814-2.51-2.15-2.51h-9.535l-0.153,0.988c-0.441,2.873,1.513,5.5,4.089,5.5h0.468l-2.068,13.131
		c-1,6.19-5.938,11.093-11.141,11.171c-7.736,0-8.67-3.698-7.604-10.717l2.744-17.559c0.207-1.322-0.814-2.514-2.153-2.514h-9.063
		l-0.15,0.988c-0.445,2.87,1.51,5.5,4.086,5.5l-2.135,13.66c-1.6,10.642,1.805,17.661,11.876,17.661
		c4.134,0,8.136-1.585,11.94-5.587h0.066c0.267,3.095,1.735,4.605,3.801,5.134c2.401,0.603,5.403,0,7.871-0.529l0.168-1.711
		C234.743,65.593,233.326,63.515,231.381,63.185"/>
	<path style="clip-path:url(#SVGID_5_);fill:#FFFFFF;" d="M266.935,34.21c-3.248-1.777-7.487-2.726-11.39-2.726
		c-6.736,0-15.677,3.095-15.677,12.528c0,6.64,5.07,9.132,11.873,10.036c4.87,0.528,8.073,1.434,7.539,5.208
		c-1,3.621-4.269,4.906-8.205,4.981c-3.002,0.075-6.137-0.832-8.004-1.885c0.319-2.97-1.729-5.587-4.374-5.587l-0.225-0.013
		c-0.51-0.023-0.943,0.373-0.996,0.88l-1.105,7.947c-0.108,0.627,0.168,1.255,0.687,1.624c3.873,2.72,7.517,3.903,12.552,3.903
		c9.003,0,14.674-3.777,16.073-11.246c1.402-9.961-6.403-11.321-12.474-12.15c-3.401-0.378-6.802-1.432-6.802-4.227
		c0-3.698,3.467-5.812,8.271-5.659c1.533,0,5.202,0.379,6.403,1.207c-0.216,2.924,1.825,5.434,4.416,5.434l0.129,0.003
		c0.451,0.006,0.838-0.321,0.901-0.766l1.14-8.006C267.761,35.095,267.469,34.501,266.935,34.21"/>
	<path style="clip-path:url(#SVGID_5_);fill:#FF901E;" d="M63.176,63.333l-0.027-0.003c-1.534-0.15-1.999-0.829-1.534-3.998
		l1.603-10.115c1.531-10.489-1.603-17.051-11.276-17.051c-4.335,0-9.003,2.185-12.471,7.619c-0.801-5.584-4.002-7.619-9.339-7.619
		c-3.405,0-7.406,1.657-9.94,5.584l0.183-3.402c0.045-0.859-0.639-1.582-1.498-1.582H9.811c-0.436,0-0.805,0.318-0.871,0.751
		l-0.024,0.165c-0.453,2.993,1.588,5.728,4.272,5.728l-4.68,29.855c-0.063,0.412,0.255,0.781,0.669,0.781h1.645
		c2.402,0,4.446-1.741,4.828-4.113l2.674-16.641c0.802-5.508,4.669-10.111,9.673-10.111c5.47,0.151,7.271,4.452,6.404,10.111
		l-3.146,19.973c-0.063,0.409,0.255,0.781,0.669,0.781h1.51c2.402,0,4.449-1.741,4.83-4.113l2.672-16.641
		c0.802-5.508,4.738-10.111,9.805-10.111c5.473,0,6.806,4.227,6.004,10.036l-1.6,10.115c-1.735,10.567,2.867,12.299,10.94,10.414
		l0.222-2.108C66.538,65.456,65.115,63.495,63.176,63.333"/>
	<path style="clip-path:url(#SVGID_5_);fill:#FF901E;" d="M103.889,63.484h-0.024c-1.537-0.156-2.002-1.213-1.465-4.302
		l3.929-25.107c0.109-0.687-0.423-1.309-1.116-1.309h-0.006c-2.969,0-5.509,2.423-6.008,5.734
		c-1.471-4.301-5.872-6.412-10.543-6.412c-10.804,0-20.945,8.301-20.745,22.867c0.139,10.492,6.605,16.073,14.477,16.298
		c4.467,0.078,9.339-1.963,12.807-6.337c0.264,3.248,1.666,4.906,3.803,5.43c2.228,0.568,4.975,0.082,7.334-0.474
		c0.322-0.075,0.556-0.348,0.589-0.678l0.132-1.309C107.272,65.681,105.834,63.808,103.889,63.484 M97.197,52.241
		c-1.6,7.848-7.538,12.222-13.473,12.071c-4.81-0.074-9.006-3.473-9.006-10.414c0-8.682,6.271-14.566,13.07-14.566
		C95.459,39.332,98.53,45.144,97.197,52.241"/>
	<path style="clip-path:url(#SVGID_5_);fill:#FF901E;" d="M176.75,54.275c3.803-15.863-3.708-23.302-14.738-22.414
		c-10.555,0.841-18.991,10.847-18.949,22.816c0.036,9.682,4.836,16.202,14.939,16.202c5.067,0,11.141-2.113,15.209-6.418
		l-0.232-0.297c-1.873-2.507-4.725-2.966-7.4-1.729c-2.075,0.96-4.362,1.504-6.307,1.504c-7.334,0-9.94-4.077-9.604-9.664H176.75z
		 M162.94,38.502c6.203,0,9.006,3.396,8.406,9.585h-20.744C152.67,41.975,157.873,38.502,162.94,38.502"/>
	<path style="clip-path:url(#SVGID_5_);fill:#FF901E;" d="M142.344,32.692h-0.054l0.03-0.03h-7.31c-0.666,0-1.3,0.264-1.771,0.733
		L118.246,48.39l4.612-29.913c0.099-0.66-0.406-1.258-1.075-1.258h-9.208c-0.534,0-0.993,0.39-1.077,0.922l-0.135,0.856
		c-0.04,0.225-0.052,0.453-0.052,0.681c0,2.306,1.88,4.263,4.269,4.263l-7.096,45.407c-0.057,0.369,0.228,0.699,0.597,0.699h0.841
		c2.834,0,5.25-2.059,5.697-4.86l1.099-6.25l5.02-5.044l4.647,10.117c3.095,6.407,5.665,7.445,11.895,5.8
		c0.147-0.039,0.257-0.165,0.275-0.318l0.232-2.237c0.195-1.84-1.087-3.608-2.936-3.779c-1.171-0.108-2.105-0.808-2.993-2.486
		l-5.963-12.255l9.169-9.552c1.081-0.012,1.876,0,1.876,0h0.468c2.576,0,4.531-2.63,4.089-5.5L142.344,32.692z"/>
</g>
<g>
	<defs>
		<path id="SVGID_6_" d="M407.65,10.337l31.918,12.678l-5.154-0.537l-9.46,6.132l-5.112-1.881c0,0-11.078,3.989-26.698,8.937
			c-31.54,9.988-80.564,24.923-87.073,26.134c9.754-1.688,95.077-26.23,113.422-33.291l1.378,1.042
			c-19.36,8.024-100.576,33.041-121.564,37.76c-10.168,2.285-20.384,4.377-30.639,6.233c-5.004,0.903-10.021,1.744-15.046,2.531
			c-5.932,0.927-11.877,1.773-17.836,2.512c-3.651,0.459-7.307,0.873-10.961,1.27c-17.733,1.912-35.553,3.053-53.399,3.203
			c18.041-0.048,36.068-1.111,54.015-2.96c3.464-0.361,6.929-0.736,10.39-1.147c5.731-0.678,11.45-1.453,17.153-2.302
			c5.176-0.775,10.341-1.61,15.492-2.508c10.375-1.81,20.708-3.866,30.993-6.114c21.034-4.608,103.032-29.364,122.757-37.452
			l1.515,1.153c0,0-12.167,5.965-40.612,14.705c-27.808,8.544-76.356,22.611-91.564,25.802c-8.01,1.678-16.043,3.249-24.1,4.69
			c-7.239,1.29-14.499,2.483-21.778,3.524c7.252-0.978,14.485-2.107,21.699-3.335c8.106-1.384,16.194-2.895,24.254-4.522
			c13.566-2.731,66.686-17.171,100.079-27.291c1.947-0.592,33.472-12.156,33.472-12.156s16.239-7.202,21.153-9.381l-5.785,4.689
			l-3.674,13.638l4.289-3.074l8.503-17.13l11.516-7.307c2.819-2.167,2.678-3.143,1.567-3.227l-2.543-0.477
			c-1.462-0.301-3.345-0.463-5.485,0.561c-2.396,1.147-9.655,4.437-9.655,4.437l-32.158-6.403L407.65,10.337z"/>
	</defs>
	<clipPath id="SVGID_7_">
		<use xlink:href="#SVGID_6_"  style="overflow:visible;"/>
	</clipPath>
	
		<linearGradient id="SVGID_8_" gradientUnits="userSpaceOnUse" x1="-37" y1="138" x2="-36" y2="138" gradientTransform="matrix(292.0743 0 0 292.0743 10978.1758 -40259.9844)">
		<stop  offset="0" style="stop-color:#187080"/>
		<stop  offset="0.8459" style="stop-color:#0A4455"/>
		<stop  offset="1" style="stop-color:#032E40"/>
	</linearGradient>
	<rect x="171.426" y="9.473" style="clip-path:url(#SVGID_7_);fill:url(#SVGID_8_);" width="292.586" height="73.587"/>
</g>
</svg>
